<svg width="55" height="49" viewBox="0 0 55 49" fill="none" xmlns="http://www.w3.org/2000/svg">
<path d="M31.5186 46.3072C31.9533 46.2062 32.4018 46.4515 32.5459 46.8834C32.6985 47.3417 32.4505 47.837 31.9922 47.9898L31.7158 47.1597C31.9758 47.9396 31.9904 47.9875 31.9902 47.9908L31.9873 47.9918C31.9857 47.9923 31.984 47.9923 31.9824 47.9927C31.9792 47.9938 31.9758 47.9947 31.9727 47.9957C31.9666 47.9975 31.9608 47.9999 31.9551 48.0015C31.9435 48.0048 31.9318 48.0076 31.9209 48.0103C31.8992 48.0157 31.8768 48.0207 31.8545 48.025C31.8104 48.0334 31.7569 48.0412 31.6904 48.0494C31.5581 48.0656 31.3513 48.0843 31.0215 48.1021C30.361 48.1378 29.1712 48.1724 27.0273 48.1724C24.8836 48.1724 23.6937 48.1378 23.0332 48.1021C22.7035 48.0843 22.4966 48.0656 22.3643 48.0494C22.2978 48.0412 22.2443 48.0334 22.2002 48.025C22.1778 48.0207 22.1556 48.0157 22.1338 48.0103C22.1229 48.0076 22.1113 48.0049 22.0996 48.0015C22.0939 47.9999 22.0881 47.9975 22.082 47.9957C22.079 47.9947 22.0754 47.9938 22.0723 47.9927C22.0708 47.9923 22.0689 47.9923 22.0674 47.9918L22.0645 47.9908C22.0641 47.9879 22.0779 47.9426 22.3389 47.1597L22.0625 47.9898C21.6042 47.837 21.3562 47.3417 21.5088 46.8834C21.6528 46.4517 22.1006 46.2066 22.5352 46.3072C22.5422 46.3083 22.5554 46.3105 22.5762 46.313C22.655 46.3227 22.8193 46.3384 23.127 46.355C23.7421 46.3883 24.8968 46.4224 27.0273 46.4224C29.1578 46.4224 30.3126 46.3883 30.9277 46.355C31.2348 46.3384 31.3986 46.3227 31.4775 46.313C31.4978 46.3106 31.5113 46.3083 31.5186 46.3072ZM22.6123 46.3297L22.6104 46.3277C22.6089 46.3272 22.6069 46.3272 22.6055 46.3267C22.6025 46.3258 22.5995 46.3247 22.5967 46.3238C22.5909 46.322 22.585 46.3203 22.5801 46.3189C22.5703 46.3161 22.5615 46.3138 22.5547 46.3121C22.5515 46.3113 22.5485 46.3107 22.5459 46.3101C22.5681 46.3156 22.5902 46.3224 22.6123 46.3297ZM31.499 46.3121C31.4922 46.3138 31.4834 46.3161 31.4736 46.3189C31.4688 46.3203 31.4636 46.3221 31.458 46.3238C31.4551 46.3247 31.4514 46.3257 31.4482 46.3267C31.447 46.3271 31.4456 46.3273 31.4443 46.3277L31.4414 46.3287V46.3297C31.4644 46.322 31.4876 46.3157 31.5107 46.3101C31.5075 46.3109 31.5032 46.3111 31.499 46.3121ZM21.6084 44.0836C21.6095 44.0837 21.6112 44.0843 21.6133 44.0845C21.6203 44.0852 21.6333 44.0868 21.6514 44.0884C21.6879 44.0917 21.7478 44.096 21.834 44.1021C22.0073 44.1143 22.2875 44.1311 22.7021 44.148C23.5323 44.1819 24.8992 44.2164 27.0273 44.2164C29.1555 44.2164 30.5225 44.1819 31.3525 44.148C31.7672 44.1311 32.0474 44.1143 32.2207 44.1021C32.3072 44.096 32.3678 44.0917 32.4043 44.0884C32.4221 44.0868 32.4345 44.0852 32.4414 44.0845H32.4463C32.9265 44.0313 33.3597 44.3768 33.4131 44.857C33.4631 45.3071 33.1619 45.7157 32.7285 45.8091L32.6396 45.8238H32.6309C32.6269 45.8242 32.6215 45.8251 32.6152 45.8257C32.602 45.8271 32.5834 45.8295 32.5596 45.8316C32.5116 45.8359 32.4402 45.8414 32.3438 45.8482C32.1508 45.8618 31.8531 45.8795 31.4238 45.897C30.5647 45.9321 29.1733 45.9664 27.0273 45.9664C24.8813 45.9664 23.49 45.9321 22.6309 45.897C22.2015 45.8795 21.9039 45.8618 21.7109 45.8482C21.6149 45.8414 21.5441 45.8359 21.4961 45.8316C21.4722 45.8295 21.4527 45.8271 21.4395 45.8257C21.4332 45.8251 21.4278 45.8242 21.4238 45.8238H21.415C20.9348 45.7704 20.5883 45.3373 20.6416 44.857C20.695 44.3767 21.1281 44.0302 21.6084 44.0836ZM33.0273 41.8755C33.5091 41.8385 33.9296 42.1986 33.9668 42.6802C34.0037 43.1618 33.6436 43.5824 33.1621 43.6197L33.0947 42.7476L33.1611 43.6197L33.1592 43.6207C33.158 43.6208 33.1563 43.6205 33.1543 43.6207C33.15 43.621 33.1436 43.6211 33.1357 43.6216C33.12 43.6228 33.0967 43.6245 33.0664 43.6265C33.0059 43.6305 32.9162 43.6365 32.7959 43.6431C32.555 43.6564 32.1911 43.6735 31.6943 43.691C30.7008 43.7258 29.1738 43.7603 27.0273 43.7603C24.881 43.7603 23.3539 43.7258 22.3604 43.691C21.8636 43.6735 21.4997 43.6564 21.2588 43.6431C21.1386 43.6365 21.0488 43.6305 20.9883 43.6265C20.9581 43.6245 20.9347 43.6228 20.9189 43.6216C20.9111 43.6211 20.9047 43.621 20.9004 43.6207C20.8984 43.6205 20.8967 43.6207 20.8955 43.6207L20.8936 43.6197C20.4118 43.5826 20.051 43.1619 20.0879 42.6802C20.1251 42.1986 20.5456 41.8385 21.0273 41.8755C21.0279 41.8756 21.0292 41.8755 21.0303 41.8755C21.033 41.8757 21.0372 41.8761 21.043 41.8765C21.0555 41.8774 21.0756 41.8787 21.1025 41.8804C21.1567 41.884 21.2404 41.8888 21.3545 41.8951C21.5832 41.9077 21.9355 41.9249 22.4209 41.942C23.3923 41.976 24.8994 42.0103 27.0273 42.0103C29.1553 42.0103 30.6624 41.976 31.6338 41.942C32.1189 41.9249 32.4705 41.9077 32.6992 41.8951C32.8136 41.8888 32.898 41.884 32.9521 41.8804C32.9791 41.8787 32.9992 41.8774 33.0117 41.8765C33.0175 41.8761 33.0218 41.8757 33.0244 41.8755C33.0256 41.8755 33.0269 41.8756 33.0273 41.8755ZM26.8145 25.2086C27.2108 25.5747 27.6272 25.9175 28.0498 26.2203C28.7483 26.7207 29.528 27.1608 30.2979 27.4C30.2485 27.5334 30.1973 27.6674 30.1494 27.8033C28.7649 31.7291 27.8209 37.0919 27.8086 41.2505C27.3339 41.252 26.8586 41.2517 26.3838 41.2505C26.3708 37.1548 25.3914 31.7912 23.9727 27.8502C23.8963 27.6381 23.8161 27.4292 23.7363 27.2232C24.5194 26.8692 25.3425 26.3555 26.1084 25.7759C26.3468 25.5955 26.5825 25.4046 26.8145 25.2086ZM18.1904 0.000549316C18.818 -0.0200657 19.3056 0.537639 19.3057 1.16559C19.3057 5.50649 22.8241 9.02588 27.165 9.02594C31.506 9.02594 35.0254 5.50653 35.0254 1.16559C35.0255 0.554789 35.5009 0.0142788 36.1113 0.0366821C41.5699 0.237051 45.7832 0.618409 46.332 1.16559C46.8065 1.64015 47.1568 4.86999 47.3721 9.27789C47.4677 11.2368 49.022 12.7794 50.6777 13.8306C52.8732 15.2246 54.33 17.6781 54.3301 20.4713C54.3299 23.256 52.8818 25.7023 50.6973 27.0982C49.0452 28.1538 47.4944 29.7003 47.4297 31.6597C47.2875 35.9648 47.0743 39.0336 46.332 39.7759C45.4373 40.6699 37.809 41.1563 29.5586 41.2388C29.5728 37.285 30.4805 32.1261 31.7998 28.3853C31.8844 28.1455 31.9692 27.913 32.0557 27.689C32.8864 27.7997 33.6891 27.8671 34.4141 27.8707C35.3307 27.8751 36.2257 27.7825 36.9004 27.48C37.248 27.3242 37.5959 27.0862 37.833 26.7203C38.0816 26.3364 38.1536 25.8952 38.083 25.4527C37.9543 24.6477 37.3524 23.8061 36.4717 22.9254C35.9106 22.3643 35.2287 22.0369 34.4658 22.1148C33.7431 22.1888 33.1346 22.6102 32.6465 23.1197C32.0328 23.7604 31.472 24.6851 30.9678 25.773C30.4533 25.6414 29.7934 25.3171 29.0693 24.7984C28.7362 24.5597 28.407 24.2907 28.0918 24.0054C28.406 23.6742 28.6982 23.338 28.9541 23.0015C29.3252 22.5135 29.6429 22.0046 29.8506 21.5025C30.0539 21.0109 30.1848 20.4466 30.0762 19.8892C29.9579 19.283 29.5789 18.8054 29.0098 18.5084C28.4787 18.2312 27.8026 18.1188 27.0273 18.1187C26.2384 18.1187 25.5455 18.2511 25.0059 18.5767C24.4287 18.9252 24.0951 19.4559 24.002 20.0689C23.9152 20.6406 24.0435 21.2275 24.252 21.7574C24.4642 22.2967 24.7856 22.8444 25.1641 23.3677C25.3021 23.5585 25.4516 23.7477 25.6074 23.9361C25.4254 24.0879 25.2409 24.238 25.0527 24.3804C24.35 24.9122 23.6512 25.3385 23.043 25.6168C22.5525 24.6063 22.0137 23.7461 21.4297 23.1382C20.9367 22.6252 20.3249 22.2 19.6016 22.1207C18.8351 22.0368 18.1485 22.361 17.584 22.9254C16.6857 23.8237 16.1037 24.7141 16.0449 25.5865C16.0134 26.0539 16.1358 26.4895 16.3984 26.856C16.6511 27.2083 17.0006 27.4522 17.3623 27.6197C18.0724 27.9483 18.9865 28.0568 19.9053 28.0328C20.5941 28.0147 21.3319 27.9202 22.0674 27.7574C22.1541 27.9784 22.2412 28.207 22.3262 28.4429C23.6795 32.2023 24.6191 37.3592 24.6338 41.2408C16.3302 41.1623 8.62074 40.675 7.72168 39.7759C6.97153 39.025 6.78771 35.9034 6.64648 31.5015C6.58528 29.595 5.1079 28.0788 3.51855 27.024C1.39799 25.6165 0.00013665 23.2071 0 20.4713C5.91564e-05 17.7435 1.39008 15.3396 3.5 13.9302C5.08549 12.8711 6.55487 11.3515 6.64258 9.44684C6.84823 4.97957 7.20448 1.68337 7.72168 1.16559C8.3206 0.567052 12.6405 0.184008 18.1904 0.000549316ZM19.4111 23.8609C19.5586 23.8772 19.8148 23.9836 20.168 24.3511C20.5518 24.7507 20.9455 25.3523 21.3369 26.1197C20.8251 26.2151 20.3237 26.2716 19.8594 26.2838C19.0661 26.3045 18.4598 26.1993 18.0977 26.0318C17.9241 25.9514 17.8489 25.8763 17.8203 25.8365C17.8017 25.8105 17.7859 25.779 17.791 25.7037C17.8057 25.4899 17.9966 24.9873 18.8213 24.1627C19.1183 23.8659 19.3069 23.8495 19.4111 23.8609ZM34.6436 23.856C34.744 23.8458 34.9341 23.8624 35.2344 24.1627C36.0768 25.0051 36.3192 25.5086 36.3545 25.7291C36.3581 25.7517 36.3576 25.7664 36.3574 25.775C36.342 25.791 36.296 25.8324 36.1846 25.8824C35.8598 26.028 35.2716 26.1248 34.4219 26.1207C33.9288 26.1182 33.3806 26.0795 32.7969 26.0152C33.1694 25.2843 33.5444 24.7124 33.9102 24.3306C34.2552 23.9705 34.503 23.8706 34.6436 23.856ZM27.0273 19.8687C27.6647 19.8688 28.0214 19.966 28.2002 20.0591C28.3404 20.1324 28.351 20.1865 28.3584 20.2242C28.3752 20.3109 28.3694 20.5045 28.2334 20.8336C28.1016 21.1524 27.8756 21.5289 27.5615 21.942C27.3627 22.2035 27.1333 22.469 26.8848 22.7349C26.7789 22.604 26.6768 22.4734 26.582 22.3423C26.2625 21.9006 26.0247 21.4823 25.8809 21.1168C25.7334 20.7418 25.7084 20.4837 25.7314 20.3316C25.7482 20.221 25.7881 20.1485 25.9102 20.0748C26.0702 19.9783 26.4037 19.8687 27.0273 19.8687Z" fill="url(#paint0_linear_1242_2309)"/>
<defs>
<linearGradient id="paint0_linear_1242_2309" x1="27.165" y1="0.000549316" x2="27.165" y2="48.173" gradientUnits="userSpaceOnUse">
<stop stop-color="#348F48"/>
<stop offset="1" stop-color="#2D733C"/>
</linearGradient>
</defs>
</svg>
